<svg id="Modo_de_isolamento" data-name="Modo de isolamento" xmlns="http://www.w3.org/2000/svg" viewBox="0 0 188.32 97.3"><defs><style>.cls-1{fill:#2dffd5;}</style></defs><path class="cls-1" d="M302.8,480.85,335,493.67l-4.09,7.55a11.41,11.41,0,0,1-10,6h-30A10.11,10.11,0,0,1,282.18,492l33.52-60.66s0,0,0,0L264,484c-11.12,11.31-10.43,29.09,2,39a26.33,26.33,0,0,0,16.55,5.72h39.74a30.76,30.76,0,0,0,26.64-15.39l6.38-11.09,67,25.82h0c15.2,3.9,27.6-12.4,19.78-26l-32.22-57.26a26.69,26.69,0,0,0-46.22,0L336.92,490Zm55.37,15.75,19.74-33.79a10.13,10.13,0,0,1,17.54,0L399,469l15.17,27.61a10,10,0,0,1,.56,8.95,10.17,10.17,0,0,1-13.06,5.29Z" transform="translate(-256.09 -431.35)"/></svg>