<svg id="Camada_1" data-name="Camada 1" xmlns="http://www.w3.org/2000/svg" xmlns:xlink="http://www.w3.org/1999/xlink" viewBox="0 0 393.13 251.07"><defs><style>.cls-1{fill:url(#Gradiente_sem_nome_9);}.cls-2{fill:#fff;}</style><linearGradient id="Gradiente_sem_nome_9" x1="2382.82" y1="282.29" x2="2666.07" y2="513.33" gradientUnits="userSpaceOnUse"><stop offset="0" stop-color="#00ffba"/><stop offset="1" stop-color="#44ffe3"/></linearGradient></defs><path class="cls-1" d="M2684.32,300h-87.7a16.13,16.13,0,0,1-11.4-4.68c2.78,23.62-38.54,20.57-37.36,63.14H2504c1.41-42.57-40.18-39.52-37.4-63.14a16,16,0,0,1-11.11,4.68h-68.69c-36.25,0-78.34,17.83-78.34,68.69a58.17,58.17,0,0,0,1.46,14.33,66.85,66.85,0,0,0,4.67,13.44,52.08,52.08,0,0,0,8.19,11.11,37.35,37.35,0,0,0,5,4.68,22.07,22.07,0,0,0,5.55,3.5,36.73,36.73,0,0,0,5.85,2.93c2,.58,3.8,1.17,5.85,1.75a55.38,55.38,0,0,0,11.69,1.46H2359c0-.29.29-.29.58-.29h1.46a1.77,1.77,0,0,0,1.17-.29,16.92,16.92,0,0,0,5.56-.88,37.81,37.81,0,0,0,9.35-4.09,21.54,21.54,0,0,0,6.72-5.85,27.66,27.66,0,0,0,4.39-6.43,35,35,0,0,0,2.34-6.43c.29-1.75.58-3.51.87-5,0-1.75.3-2.92.3-4.09v-1.46l-.59,2.92a63.1,63.1,0,0,1-1.75,7.31c-.88,1.75-1.76,3.8-2.93,5.85a36.63,36.63,0,0,1-4.38,5.55,27.83,27.83,0,0,1-6.72,4.68,37.67,37.67,0,0,1-13.45,3.21h-3.8c-.29,0-.88-.29-1.17-.29a39.7,39.7,0,0,1-10.23-1.75,25.5,25.5,0,0,1-5-2.05,16.16,16.16,0,0,1-5-2.63,42.18,42.18,0,0,1-4.38-3.22,45.75,45.75,0,0,1-3.8-4.09,34.87,34.87,0,0,1-6.14-9.94,47.05,47.05,0,0,1-3.22-11.4,72.19,72.19,0,0,1-.58-7.89c0-32.45,22.8-45.89,42.38-45.89h78c-6.14,11.69-16.66,19-27.48,19a9.61,9.61,0,0,0,4.68,7.89v140c0,54.37-18.42,49.11-18.42,49.11,25.43,7.89,26.9-41.81,53.5-38.3,0,0-2.63-6.43-7.31-7.89V327.52h27.77c25.24,0,30.47,20,31.44,31h-28.55c9.06,2.34,10.52,12.57,10.82,17.25v112c-.3,4.68-1.76,14.91-10.82,17.25h99.39c-9.06-2.34-10.53-12.57-10.53-17.25V375.75c0-4.68,1.47-14.91,10.53-17.25h-25.55c1.06-11,6.44-31,31.68-31h43.56c-4.68,8.18-14.32,20.17-28.94,20.17a9.45,9.45,0,0,0,5,7.89v70.88c-.29,0-.59-.3-.88-.3a1,1,0,0,0-.58-.29c-.29,0-.59-.29-.88-.29s-.29-.29-.58-.29a1.1,1.1,0,0,0-.88-.29,6.08,6.08,0,0,0-1.46-.88c-.29-.29-.88-.29-1.46-.59l-.59-.58c-.29,0-.29-.29-.58-.29a30.18,30.18,0,0,1-5-3.51,13.66,13.66,0,0,1-2.05-2l-.88-.87c-.29-.3-.87-.59-1.16-1.17a29.17,29.17,0,0,1-5.27-8.48c0-.29-.29-.58-.29-.88a1.51,1.51,0,0,1-.58-1.17,4,4,0,0,1-.59-1.75,5.42,5.42,0,0,1-.58-2c0-.29-.29-.58-.29-.87a.9.9,0,0,0-.3-.59,3.72,3.72,0,0,0-.29-1.75v-1.17a2.24,2.24,0,0,1-.29-1.17V394a8.24,8.24,0,0,1-.29-1.75v7.89c0,.29.29.58.29.88a5,5,0,0,0,.29,2c0,.59.29,1.46.29,2.05,0,.29.3.88.3,1.17s.29.87.29,1.17a47.16,47.16,0,0,0,4.38,9.94c.29.29.59.87.88,1.16a3.78,3.78,0,0,0,.88,1.17,16.19,16.19,0,0,1,2,2.64c1.46,1.46,3.22,3.21,5,4.67.29.29.59.29.59.59a1,1,0,0,1,.58.29,6.37,6.37,0,0,0,1.75,1.17,5.39,5.39,0,0,0,1.47,1.17c.29.29.58.29.87.58.3,0,.3.29.59.29.29.3.58.3.87.59.3,0,.59.29.88.29a6.2,6.2,0,0,1,1.46.88,14.5,14.5,0,0,1,2.05.87v63.73c-4.45,1.66-7,7.75-7,7.75,26.6-3.51,28.07,46.19,53.5,38.3,0,0-18.42,5.26-18.42-49.11l-.34-54.82a38.49,38.49,0,0,0,5.54-.29,78.49,78.49,0,0,0,8.19-.88l1.17-.29.87-.29a5.49,5.49,0,0,0,2.05-.59c.58,0,1.46-.29,2-.29.58-.29,1.46-.58,2-.88l.88-.29a1.77,1.77,0,0,0,1.17-.29c.58-.29,1.17-.29,1.75-.59,1.46-.58,2.63-1.17,3.8-1.75,1.46-.58,2.63-1.17,3.8-1.75.59-.3,1.17-.88,1.76-1.17.58,0,.87-.3,1.46-.59l.29-.29c.58-.29,1.17-.88,1.75-1.17s1.17-.88,1.76-1.17,1.17-.88,1.75-1.17a3,3,0,0,1,1.46-1.17,25.68,25.68,0,0,0,2.93-2.63c.58-.58,1.17-.87,1.46-1.46l1.46-1.46a58.93,58.93,0,0,0,8.48-11.69,61.83,61.83,0,0,0,5-11.4,27,27,0,0,1,.87-2.63c0-.59.3-.88.3-1.47,0-.29.29-.58.29-1.17a26,26,0,0,0,.87-4.09c0-.58.3-.87.3-1.17v-.87c0-.59.29-1.17.29-1.76v-1.46a1.08,1.08,0,0,0,.29-.88V323.13c0-22.21,7.89-21.34,7.89-29.81C2701.56,293.32,2696.89,300,2684.32,300Zm-148.5,193.51H2513V370.19h22.8Zm130.67-119.12c0,23.38-7.6,49.1-39.17,54.07v-101h39.17Z" transform="translate(-2308.44 -293.32)"/><path class="cls-2" d="M2457.73,522.67h-5.82v-3.19h15.52v3.19h-5.79v18.12h-3.91Z" transform="translate(-2308.44 -293.32)"/><path class="cls-2" d="M2471.1,519.48h13.13v3.19H2475v5.73h7.85v3.19H2475v6h9.34v3.2H2471.1Z" transform="translate(-2308.44 -293.32)"/><path class="cls-2" d="M2488.41,519.48h3.91v18.11h9.31v3.2h-13.22Z" transform="translate(-2308.44 -293.32)"/><path class="cls-2" d="M2509.31,536.58l-1.38,4.21h-4.23l7.73-21.31h3.79l7.72,21.31h-4.23l-1.35-4.21Zm4-12.45-3.11,9.31h6.18Z" transform="translate(-2308.44 -293.32)"/><path class="cls-2" d="M2530.56,527.6c0-3.14.48-4.87,1.76-6.27s3.22-2.18,6.12-2.18c3.07,0,5,.78,6.41,2.54,1.08,1.37,1.46,3,1.46,5.91v5.07c0,3.16-.47,4.86-1.76,6.26s-3.25,2.18-6.11,2.18c-3.08,0-5-.77-6.42-2.53-1-1.35-1.46-3-1.46-5.91Zm11.85.32c0-4.06-1.11-5.61-4-5.61s-4,1.55-4,5.61v4.42c0,4.06,1.1,5.61,4,5.61s4-1.55,4-5.61Z" transform="translate(-2308.44 -293.32)"/><path class="cls-2" d="M2561,540.79h-3.91V519.48h7.17c2.95,0,4.53.48,5.73,1.7s1.58,2.71,1.58,5.07c0,2.57-.57,4.21-1.88,5.37s-2.72,1.47-5.43,1.47H2561Zm3.26-10.87c2.44,0,3.43-1.07,3.43-3.67s-1-3.64-3.43-3.64h-3.32v7.31Z" transform="translate(-2308.44 -293.32)"/><path class="cls-2" d="M2577.3,536.58l-1.37,4.21h-4.24l7.73-21.31h3.79l7.73,21.31h-4.24l-1.34-4.21Zm4-12.45-3.1,9.31h6.17Z" transform="translate(-2308.44 -293.32)"/><path class="cls-2" d="M2593.09,519.48H2597v21.31h-3.91Z" transform="translate(-2308.44 -293.32)"/></svg>